<mxfile host="app.diagrams.net" modified="2024-03-25T09:28:36.675Z" agent="Mozilla/5.0 (Windows NT 10.0; Win64; x64) AppleWebKit/537.36 (KHTML, like Gecko) Chrome/122.0.0.0 Safari/537.36 Edg/122.0.0.0" etag="UO4yLO1oFiIgzrI93k2G" version="24.0.7" type="github">
  <diagram name="第 1 页" id="UmUvK1AYBWvvpL-HPWX_">
    <mxGraphModel dx="2207" dy="864" grid="1" gridSize="10" guides="1" tooltips="1" connect="1" arrows="1" fold="1" page="1" pageScale="1" pageWidth="827" pageHeight="1169" math="0" shadow="0">
      <root>
        <mxCell id="0" />
        <mxCell id="1" parent="0" />
        <mxCell id="Cd073-Kia_-S_Wgiu5I0-1" value="Process Bar" style="swimlane;childLayout=stackLayout;horizontal=1;fillColor=none;horizontalStack=1;resizeParent=1;resizeParentMax=0;resizeLast=0;collapsible=0;strokeColor=none;stackBorder=10;stackSpacing=-12;resizable=1;align=center;points=[];whiteSpace=wrap;html=1;" vertex="1" parent="1">
          <mxGeometry x="80" y="220" width="296" height="100" as="geometry" />
        </mxCell>
        <mxCell id="Cd073-Kia_-S_Wgiu5I0-2" value="A" style="shape=step;perimeter=stepPerimeter;fixedSize=1;points=[];whiteSpace=wrap;html=1;" vertex="1" parent="Cd073-Kia_-S_Wgiu5I0-1">
          <mxGeometry x="10" y="33" width="100" height="57" as="geometry" />
        </mxCell>
        <mxCell id="Cd073-Kia_-S_Wgiu5I0-4" value="Step 3" style="shape=step;perimeter=stepPerimeter;fixedSize=1;points=[];whiteSpace=wrap;html=1;" vertex="1" parent="Cd073-Kia_-S_Wgiu5I0-1">
          <mxGeometry x="98" y="33" width="100" height="57" as="geometry" />
        </mxCell>
        <mxCell id="Cd073-Kia_-S_Wgiu5I0-3" value="Step 2" style="shape=step;perimeter=stepPerimeter;fixedSize=1;points=[];whiteSpace=wrap;html=1;" vertex="1" parent="Cd073-Kia_-S_Wgiu5I0-1">
          <mxGeometry x="186" y="33" width="100" height="57" as="geometry" />
        </mxCell>
        <mxCell id="Cd073-Kia_-S_Wgiu5I0-6" value="Q1" style="rounded=0;whiteSpace=wrap;html=1;" vertex="1" parent="1">
          <mxGeometry x="80" y="360" width="150" height="50" as="geometry" />
        </mxCell>
        <mxCell id="Cd073-Kia_-S_Wgiu5I0-7" value="Q2" style="rounded=0;whiteSpace=wrap;html=1;" vertex="1" parent="1">
          <mxGeometry x="230" y="360" width="150" height="50" as="geometry" />
        </mxCell>
        <mxCell id="Cd073-Kia_-S_Wgiu5I0-8" value="Q3" style="rounded=0;whiteSpace=wrap;html=1;" vertex="1" parent="1">
          <mxGeometry x="380" y="360" width="150" height="50" as="geometry" />
        </mxCell>
        <mxCell id="Cd073-Kia_-S_Wgiu5I0-9" value="Q4" style="rounded=0;whiteSpace=wrap;html=1;" vertex="1" parent="1">
          <mxGeometry x="530" y="360" width="150" height="50" as="geometry" />
        </mxCell>
        <mxCell id="Cd073-Kia_-S_Wgiu5I0-16" value="" style="group" vertex="1" connectable="0" parent="1">
          <mxGeometry x="80" y="410" width="600" height="70" as="geometry" />
        </mxCell>
        <mxCell id="Cd073-Kia_-S_Wgiu5I0-10" value="【必须-服务瘦身】低频服务梳理，下线" style="rounded=0;whiteSpace=wrap;html=1;" vertex="1" parent="Cd073-Kia_-S_Wgiu5I0-16">
          <mxGeometry width="150" height="70" as="geometry" />
        </mxCell>
        <mxCell id="Cd073-Kia_-S_Wgiu5I0-11" value="" style="rounded=0;whiteSpace=wrap;html=1;" vertex="1" parent="Cd073-Kia_-S_Wgiu5I0-16">
          <mxGeometry x="150" width="150" height="70" as="geometry" />
        </mxCell>
        <mxCell id="Cd073-Kia_-S_Wgiu5I0-12" value="" style="rounded=0;whiteSpace=wrap;html=1;" vertex="1" parent="Cd073-Kia_-S_Wgiu5I0-16">
          <mxGeometry x="300" width="150" height="70" as="geometry" />
        </mxCell>
        <mxCell id="Cd073-Kia_-S_Wgiu5I0-13" value="" style="rounded=0;whiteSpace=wrap;html=1;" vertex="1" parent="Cd073-Kia_-S_Wgiu5I0-16">
          <mxGeometry x="450" width="150" height="70" as="geometry" />
        </mxCell>
        <mxCell id="Cd073-Kia_-S_Wgiu5I0-26" value="" style="group" vertex="1" connectable="0" parent="1">
          <mxGeometry x="80" y="480" width="600" height="70" as="geometry" />
        </mxCell>
        <mxCell id="Cd073-Kia_-S_Wgiu5I0-27" value="" style="rounded=0;whiteSpace=wrap;html=1;" vertex="1" parent="Cd073-Kia_-S_Wgiu5I0-26">
          <mxGeometry width="150" height="70" as="geometry" />
        </mxCell>
        <mxCell id="Cd073-Kia_-S_Wgiu5I0-28" value="" style="rounded=0;whiteSpace=wrap;html=1;" vertex="1" parent="Cd073-Kia_-S_Wgiu5I0-26">
          <mxGeometry x="150" width="150" height="70" as="geometry" />
        </mxCell>
        <mxCell id="Cd073-Kia_-S_Wgiu5I0-29" value="" style="rounded=0;whiteSpace=wrap;html=1;" vertex="1" parent="Cd073-Kia_-S_Wgiu5I0-26">
          <mxGeometry x="300" width="150" height="70" as="geometry" />
        </mxCell>
        <mxCell id="Cd073-Kia_-S_Wgiu5I0-30" value="" style="rounded=0;whiteSpace=wrap;html=1;" vertex="1" parent="Cd073-Kia_-S_Wgiu5I0-26">
          <mxGeometry x="450" width="150" height="70" as="geometry" />
        </mxCell>
        <mxCell id="Cd073-Kia_-S_Wgiu5I0-31" value="" style="group" vertex="1" connectable="0" parent="1">
          <mxGeometry x="80" y="550" width="600" height="70" as="geometry" />
        </mxCell>
        <mxCell id="Cd073-Kia_-S_Wgiu5I0-32" value="" style="rounded=0;whiteSpace=wrap;html=1;" vertex="1" parent="Cd073-Kia_-S_Wgiu5I0-31">
          <mxGeometry width="150" height="70" as="geometry" />
        </mxCell>
        <mxCell id="Cd073-Kia_-S_Wgiu5I0-33" value="" style="rounded=0;whiteSpace=wrap;html=1;" vertex="1" parent="Cd073-Kia_-S_Wgiu5I0-31">
          <mxGeometry x="150" width="150" height="70" as="geometry" />
        </mxCell>
        <mxCell id="Cd073-Kia_-S_Wgiu5I0-34" value="" style="rounded=0;whiteSpace=wrap;html=1;" vertex="1" parent="Cd073-Kia_-S_Wgiu5I0-31">
          <mxGeometry x="300" width="150" height="70" as="geometry" />
        </mxCell>
        <mxCell id="Cd073-Kia_-S_Wgiu5I0-35" value="" style="rounded=0;whiteSpace=wrap;html=1;" vertex="1" parent="Cd073-Kia_-S_Wgiu5I0-31">
          <mxGeometry x="450" width="150" height="70" as="geometry" />
        </mxCell>
        <mxCell id="Cd073-Kia_-S_Wgiu5I0-36" value="" style="group" vertex="1" connectable="0" parent="1">
          <mxGeometry x="80" y="620" width="600" height="70" as="geometry" />
        </mxCell>
        <mxCell id="Cd073-Kia_-S_Wgiu5I0-37" value="" style="rounded=0;whiteSpace=wrap;html=1;" vertex="1" parent="Cd073-Kia_-S_Wgiu5I0-36">
          <mxGeometry width="150" height="70" as="geometry" />
        </mxCell>
        <mxCell id="Cd073-Kia_-S_Wgiu5I0-38" value="" style="rounded=0;whiteSpace=wrap;html=1;" vertex="1" parent="Cd073-Kia_-S_Wgiu5I0-36">
          <mxGeometry x="150" width="150" height="70" as="geometry" />
        </mxCell>
        <mxCell id="Cd073-Kia_-S_Wgiu5I0-39" value="" style="rounded=0;whiteSpace=wrap;html=1;" vertex="1" parent="Cd073-Kia_-S_Wgiu5I0-36">
          <mxGeometry x="300" width="150" height="70" as="geometry" />
        </mxCell>
        <mxCell id="Cd073-Kia_-S_Wgiu5I0-40" value="" style="rounded=0;whiteSpace=wrap;html=1;" vertex="1" parent="Cd073-Kia_-S_Wgiu5I0-36">
          <mxGeometry x="450" width="150" height="70" as="geometry" />
        </mxCell>
        <mxCell id="Cd073-Kia_-S_Wgiu5I0-47" value="" style="group" vertex="1" connectable="0" parent="1">
          <mxGeometry x="-40" y="360" width="120" height="330" as="geometry" />
        </mxCell>
        <mxCell id="Cd073-Kia_-S_Wgiu5I0-41" value="" style="rounded=0;whiteSpace=wrap;html=1;container=0;" vertex="1" parent="Cd073-Kia_-S_Wgiu5I0-47">
          <mxGeometry width="120" height="50" as="geometry" />
        </mxCell>
        <mxCell id="Cd073-Kia_-S_Wgiu5I0-42" value="业务中台" style="rounded=0;whiteSpace=wrap;html=1;container=0;" vertex="1" parent="Cd073-Kia_-S_Wgiu5I0-47">
          <mxGeometry y="50" width="120" height="70" as="geometry" />
        </mxCell>
        <mxCell id="Cd073-Kia_-S_Wgiu5I0-43" value="" style="rounded=0;whiteSpace=wrap;html=1;container=0;" vertex="1" parent="Cd073-Kia_-S_Wgiu5I0-47">
          <mxGeometry y="120" width="120" height="70" as="geometry" />
        </mxCell>
        <mxCell id="Cd073-Kia_-S_Wgiu5I0-44" value="" style="rounded=0;whiteSpace=wrap;html=1;container=0;" vertex="1" parent="Cd073-Kia_-S_Wgiu5I0-47">
          <mxGeometry y="190" width="120" height="70" as="geometry" />
        </mxCell>
        <mxCell id="Cd073-Kia_-S_Wgiu5I0-45" value="" style="rounded=0;whiteSpace=wrap;html=1;container=0;" vertex="1" parent="Cd073-Kia_-S_Wgiu5I0-47">
          <mxGeometry y="260" width="120" height="70" as="geometry" />
        </mxCell>
        <mxCell id="Cd073-Kia_-S_Wgiu5I0-48" value="" style="rounded=0;whiteSpace=wrap;html=1;" vertex="1" parent="1">
          <mxGeometry x="-250" y="310" width="80" height="30" as="geometry" />
        </mxCell>
        <mxCell id="Cd073-Kia_-S_Wgiu5I0-52" value="" style="group" vertex="1" connectable="0" parent="1">
          <mxGeometry x="-410" y="870" width="520" height="100" as="geometry" />
        </mxCell>
        <mxCell id="Cd073-Kia_-S_Wgiu5I0-5" value="Q1" style="shape=step;perimeter=stepPerimeter;fixedSize=1;points=[];whiteSpace=wrap;html=1;" vertex="1" parent="Cd073-Kia_-S_Wgiu5I0-52">
          <mxGeometry width="520" height="40" as="geometry" />
        </mxCell>
        <mxCell id="Cd073-Kia_-S_Wgiu5I0-50" value="【服务瘦身】低频服务梳理，下线" style="rounded=1;whiteSpace=wrap;html=1;strokeColor=#FF0000;dashed=1;align=left;" vertex="1" parent="Cd073-Kia_-S_Wgiu5I0-52">
          <mxGeometry y="60" width="250" height="40" as="geometry" />
        </mxCell>
        <mxCell id="Cd073-Kia_-S_Wgiu5I0-51" value="【服务瘦身】低频服务梳理，下线" style="rounded=1;whiteSpace=wrap;html=1;strokeColor=#FF0000;dashed=1;align=left;" vertex="1" parent="Cd073-Kia_-S_Wgiu5I0-52">
          <mxGeometry x="270" y="60" width="250" height="40" as="geometry" />
        </mxCell>
        <mxCell id="Cd073-Kia_-S_Wgiu5I0-58" value="" style="group" vertex="1" connectable="0" parent="1">
          <mxGeometry x="670" y="870" width="520" height="100" as="geometry" />
        </mxCell>
        <mxCell id="Cd073-Kia_-S_Wgiu5I0-59" value="Q1" style="shape=step;perimeter=stepPerimeter;fixedSize=1;points=[];whiteSpace=wrap;html=1;" vertex="1" parent="Cd073-Kia_-S_Wgiu5I0-58">
          <mxGeometry width="520" height="40" as="geometry" />
        </mxCell>
        <mxCell id="Cd073-Kia_-S_Wgiu5I0-60" value="【服务瘦身】低频服务梳理，下线" style="rounded=1;whiteSpace=wrap;html=1;strokeColor=#FF0000;dashed=1;align=left;" vertex="1" parent="Cd073-Kia_-S_Wgiu5I0-58">
          <mxGeometry y="60" width="250" height="40" as="geometry" />
        </mxCell>
        <mxCell id="Cd073-Kia_-S_Wgiu5I0-61" value="【服务瘦身】低频服务梳理，下线" style="rounded=1;whiteSpace=wrap;html=1;strokeColor=#FF0000;dashed=1;align=left;" vertex="1" parent="Cd073-Kia_-S_Wgiu5I0-58">
          <mxGeometry x="270" y="60" width="250" height="40" as="geometry" />
        </mxCell>
        <mxCell id="Cd073-Kia_-S_Wgiu5I0-62" value="" style="group" vertex="1" connectable="0" parent="1">
          <mxGeometry x="1210" y="870" width="520" height="100" as="geometry" />
        </mxCell>
        <mxCell id="Cd073-Kia_-S_Wgiu5I0-63" value="Q1" style="shape=step;perimeter=stepPerimeter;fixedSize=1;points=[];whiteSpace=wrap;html=1;" vertex="1" parent="Cd073-Kia_-S_Wgiu5I0-62">
          <mxGeometry width="520" height="40" as="geometry" />
        </mxCell>
        <mxCell id="Cd073-Kia_-S_Wgiu5I0-64" value="【服务瘦身】低频服务梳理，下线" style="rounded=1;whiteSpace=wrap;html=1;strokeColor=#FF0000;dashed=1;align=left;" vertex="1" parent="Cd073-Kia_-S_Wgiu5I0-62">
          <mxGeometry y="60" width="250" height="40" as="geometry" />
        </mxCell>
        <mxCell id="Cd073-Kia_-S_Wgiu5I0-65" value="【服务瘦身】低频服务梳理，下线" style="rounded=1;whiteSpace=wrap;html=1;strokeColor=#FF0000;dashed=1;align=left;" vertex="1" parent="Cd073-Kia_-S_Wgiu5I0-62">
          <mxGeometry x="270" y="60" width="250" height="40" as="geometry" />
        </mxCell>
        <mxCell id="Cd073-Kia_-S_Wgiu5I0-54" value="&lt;font style=&quot;font-size: 18px;&quot;&gt;Q1&lt;/font&gt;" style="shape=step;perimeter=stepPerimeter;fixedSize=1;points=[];whiteSpace=wrap;html=1;fontStyle=1" vertex="1" parent="1">
          <mxGeometry x="10" y="1080" width="290" height="40" as="geometry" />
        </mxCell>
        <mxCell id="Cd073-Kia_-S_Wgiu5I0-55" value="【服务瘦身】支持侧微服务合并" style="rounded=1;whiteSpace=wrap;html=1;strokeColor=#00CC00;dashed=1;align=left;fontStyle=1" vertex="1" parent="1">
          <mxGeometry x="10" y="1129" width="130" height="40" as="geometry" />
        </mxCell>
        <mxCell id="Cd073-Kia_-S_Wgiu5I0-71" value="【服务瘦身】&lt;br&gt;低频服务梳理，下线" style="rounded=1;whiteSpace=wrap;html=1;strokeColor=#FF0000;dashed=1;align=left;fontStyle=1" vertex="1" parent="1">
          <mxGeometry x="290" y="1129" width="130" height="40" as="geometry" />
        </mxCell>
        <mxCell id="Cd073-Kia_-S_Wgiu5I0-72" value="&lt;font style=&quot;font-size: 18px;&quot;&gt;Q2&lt;/font&gt;" style="shape=step;perimeter=stepPerimeter;fixedSize=1;points=[];whiteSpace=wrap;html=1;fontStyle=1" vertex="1" parent="1">
          <mxGeometry x="290" y="1080" width="290" height="40" as="geometry" />
        </mxCell>
        <mxCell id="Cd073-Kia_-S_Wgiu5I0-73" value="【服务瘦身】&lt;br&gt;供应链微服务合并" style="rounded=1;whiteSpace=wrap;html=1;strokeColor=#FF0000;dashed=1;align=left;fontStyle=1" vertex="1" parent="1">
          <mxGeometry x="430" y="1129" width="130" height="40" as="geometry" />
        </mxCell>
        <mxCell id="Cd073-Kia_-S_Wgiu5I0-74" value="【服务瘦身】&lt;br&gt;低服务功能迁移，下线" style="rounded=1;whiteSpace=wrap;html=1;strokeColor=#FF0000;dashed=1;align=left;fontStyle=1" vertex="1" parent="1">
          <mxGeometry x="570" y="1129" width="130" height="40" as="geometry" />
        </mxCell>
        <mxCell id="Cd073-Kia_-S_Wgiu5I0-75" value="【服务瘦身】&lt;br&gt;低频服务梳理，下线" style="rounded=1;whiteSpace=wrap;html=1;strokeColor=#FF0000;dashed=1;align=left;fontStyle=1" vertex="1" parent="1">
          <mxGeometry x="710" y="1129" width="130" height="40" as="geometry" />
        </mxCell>
        <mxCell id="Cd073-Kia_-S_Wgiu5I0-78" value="【服务瘦身】&lt;br&gt;低频服务梳理，下线" style="rounded=1;whiteSpace=wrap;html=1;strokeColor=#FF0000;dashed=1;align=left;fontStyle=1" vertex="1" parent="1">
          <mxGeometry x="850" y="1129" width="130" height="40" as="geometry" />
        </mxCell>
        <mxCell id="Cd073-Kia_-S_Wgiu5I0-79" value="【服务瘦身】&lt;br&gt;低频服务梳理，下线" style="rounded=1;whiteSpace=wrap;html=1;strokeColor=#FF0000;dashed=1;align=left;fontStyle=1" vertex="1" parent="1">
          <mxGeometry x="990" y="1129" width="130" height="40" as="geometry" />
        </mxCell>
        <mxCell id="Cd073-Kia_-S_Wgiu5I0-80" value="&lt;font style=&quot;font-size: 18px;&quot;&gt;Q3&lt;/font&gt;" style="shape=step;perimeter=stepPerimeter;fixedSize=1;points=[];whiteSpace=wrap;html=1;fontStyle=1" vertex="1" parent="1">
          <mxGeometry x="570" y="1080" width="290" height="40" as="geometry" />
        </mxCell>
        <mxCell id="Cd073-Kia_-S_Wgiu5I0-81" value="&lt;font style=&quot;font-size: 18px;&quot;&gt;Q4&lt;/font&gt;" style="shape=step;perimeter=stepPerimeter;fixedSize=1;points=[];whiteSpace=wrap;html=1;fontStyle=1" vertex="1" parent="1">
          <mxGeometry x="850" y="1080" width="290" height="40" as="geometry" />
        </mxCell>
        <mxCell id="Cd073-Kia_-S_Wgiu5I0-83" value="【设计规划】业务中台架构" style="rounded=1;whiteSpace=wrap;html=1;strokeColor=#00CC00;dashed=1;align=left;fontStyle=1" vertex="1" parent="1">
          <mxGeometry x="150" y="1129" width="130" height="40" as="geometry" />
        </mxCell>
        <mxCell id="Cd073-Kia_-S_Wgiu5I0-84" value="【服务瘦身】&lt;br&gt;通路微服务合并" style="rounded=1;whiteSpace=wrap;html=1;strokeColor=#FF0000;dashed=1;align=left;fontStyle=1" vertex="1" parent="1">
          <mxGeometry x="290" y="1180" width="130" height="40" as="geometry" />
        </mxCell>
        <mxCell id="Cd073-Kia_-S_Wgiu5I0-85" value="【服务瘦身】&lt;br&gt;消费者微服务合并" style="rounded=1;whiteSpace=wrap;html=1;strokeColor=#FF0000;dashed=1;align=left;fontStyle=1" vertex="1" parent="1">
          <mxGeometry x="430" y="1180" width="130" height="40" as="geometry" />
        </mxCell>
        <mxCell id="Cd073-Kia_-S_Wgiu5I0-86" value="" style="endArrow=none;dashed=1;html=1;strokeWidth=2;rounded=0;" edge="1" parent="1">
          <mxGeometry width="50" height="50" relative="1" as="geometry">
            <mxPoint y="1340" as="sourcePoint" />
            <mxPoint x="1270" y="1340" as="targetPoint" />
          </mxGeometry>
        </mxCell>
        <mxCell id="Cd073-Kia_-S_Wgiu5I0-87" value="【接入推进】&lt;br&gt;CRM/SFA/C4I/营销中台接入单点登录" style="rounded=1;whiteSpace=wrap;html=1;strokeColor=#FF0000;dashed=1;align=left;fontStyle=1" vertex="1" parent="1">
          <mxGeometry x="290" y="1230" width="270" height="40" as="geometry" />
        </mxCell>
        <mxCell id="Cd073-Kia_-S_Wgiu5I0-88" value="【接入推进】&lt;br&gt;其他中台接入单点登录" style="rounded=1;whiteSpace=wrap;html=1;strokeColor=#FF0000;dashed=1;align=left;fontStyle=1" vertex="1" parent="1">
          <mxGeometry x="570" y="1280" width="270" height="40" as="geometry" />
        </mxCell>
        <mxCell id="Cd073-Kia_-S_Wgiu5I0-89" value="【微服务】&lt;br&gt;任务微服务化" style="rounded=1;whiteSpace=wrap;html=1;strokeColor=#FF0000;dashed=1;align=left;fontStyle=1" vertex="1" parent="1">
          <mxGeometry x="570" y="1230" width="130" height="40" as="geometry" />
        </mxCell>
        <mxCell id="Cd073-Kia_-S_Wgiu5I0-90" value="【主数据】梳理1~2项核心主数据治理" style="rounded=1;whiteSpace=wrap;html=1;strokeColor=#FF0000;dashed=1;align=left;fontStyle=1" vertex="1" parent="1">
          <mxGeometry x="710" y="1180" width="130" height="40" as="geometry" />
        </mxCell>
        <mxCell id="Cd073-Kia_-S_Wgiu5I0-91" value="【微服务】&lt;br&gt;商品微服务化" style="rounded=1;whiteSpace=wrap;html=1;strokeColor=#FF0000;dashed=1;align=left;fontStyle=1" vertex="1" parent="1">
          <mxGeometry x="710" y="1230" width="130" height="40" as="geometry" />
        </mxCell>
        <mxCell id="Cd073-Kia_-S_Wgiu5I0-92" value="【微服务】&lt;br&gt;内容微服务化" style="rounded=1;whiteSpace=wrap;html=1;strokeColor=#FF0000;dashed=1;align=left;fontStyle=1" vertex="1" parent="1">
          <mxGeometry x="570" y="1180" width="130" height="40" as="geometry" />
        </mxCell>
      </root>
    </mxGraphModel>
  </diagram>
</mxfile>
